# xmcd
#
# Track frame offsets:
#	150
#	27207
#	40630
#	85250
#	108660
#	162208
#	188135
#
# Disc length: 2840 seconds
#
# Revision: 0
# Processed by: cddbd v1.5.2PL0 Copyright (c) Steve Scherf et al.
# Submitted via: EasyCDDAExtractor 16.0.8.2
#
DISCID=4d0b1607
DTITLE=Άνευ ερμηνευτού - Τσιτσάνοι διάλογοι-Σ. Ξαρχάκος 1
DYEAR=2004
DGENRE=Ορχηστρική
TTITLE0=Ο L.V.B. ακούει παλιά λαϊκά [Πάνε τα παλιά, Σ. Παγιουμτζής]
TTITLE1=Ανθούλα πεθαίνω για σένα [Αρχόντισσα, Σ.Παγιουμτζής-Σ.Περπινιάδης]
TTITLE2=Στις πεοφιλούσες μοναχικές γυναίκες [Μέσ' σκοτούρα, Σ.Παγιουμτζής]
TTITLE3=Με τα πανέμορφα ογλάν [Τα παντρεμενάδικα, Ν. Σταυροπούλου]
TTITLE4=Η ασέληνος νύχτα 5ης Μαρτίου 1951[Καλαμπακιώτισσα, Σ.Παγιουμτζής]
TTITLE5=Οι μάντρες ξεχασμένων κήπων [Αλευρά μάντρα, Σ. Παγιουμτζής]
TTITLE6=Ο συνθέτης ταξιδεύει ποτάμι [Βελουδένια μάτια, Σ. Παγιουμτζής]
EXTD=
EXTT0=
EXTT1=
EXTT2=
EXTT3=
EXTT4=
EXTT5=
EXTT6=
PLAYORDER=
